<svg width="40" height="38" viewBox="0 0 40 38" fill="none" xmlns="http://www.w3.org/2000/svg">
<path d="M38.3371 1.43815C37.267 0.556428 35.8726 0.210099 34.5153 0.488224L20.678 3.32221C20.228 3.41471 19.772 3.41471 19.3216 3.32213L5.48469 0.488224C4.12758 0.210099 2.73352 0.556271 1.66344 1.43768C0.594609 2.31807 0 3.64924 0 5.03393V5.3826C0 5.65807 0.189375 5.89737 0.457422 5.96072L11.3988 8.54635C12.513 8.80987 13.2913 9.79369 13.2913 10.9387V27.219C13.2913 27.5471 13.5573 27.8131 13.8854 27.8131C14.2134 27.8131 14.4795 27.5471 14.4795 27.219V25.887H16.7954C16.9027 26.9182 17.2864 27.8682 17.8702 28.6626V34.7216C17.8702 35.1741 17.6937 35.6002 17.3736 35.9209C17.0548 36.2398 16.6313 36.416 16.1807 36.4174C15.2447 36.4205 14.4793 35.6132 14.4793 34.6772V29.9914C14.4793 29.6634 14.2133 29.3974 13.8852 29.3974C13.5572 29.3974 13.2912 29.6634 13.2912 29.9914V34.664C13.2912 36.2453 14.5396 37.576 16.1205 37.6051C16.9109 37.6196 17.6562 37.3185 18.2141 36.7606C18.7584 36.2152 19.0582 35.491 19.0582 34.7216V29.8619C20.0096 30.5735 21.1898 30.9953 22.4665 30.9953C22.6602 30.9953 22.8515 30.9853 23.0402 30.9664C23.4536 31.5974 24.4845 32.7601 26.638 33.1639C27.7979 33.3814 28.7859 33.0837 29.6577 32.821C30.9905 32.4193 31.9539 32.1292 33.3245 33.4999C33.4394 33.6147 33.5916 33.6739 33.7448 33.6739C33.8599 33.6739 33.9756 33.6405 34.0767 33.5724C34.3125 33.4135 34.4025 33.1098 34.2916 32.8479C34.268 32.7921 33.697 31.4694 32.2931 30.3346C31.2325 29.4771 29.5129 28.5945 27.0108 28.7328C27.7369 27.7759 28.1689 26.5841 28.1689 25.2929C28.1689 24.1159 27.8103 23.021 27.1969 22.1117H34.6766C36.2565 22.1117 37.5867 20.865 37.617 19.2854C37.6322 18.4948 37.3312 17.7483 36.7726 17.1887C36.2271 16.6443 35.503 16.3446 34.7336 16.3446H31.7626C31.4345 16.3446 31.1685 16.6106 31.1685 16.9386C31.1685 17.2667 31.4345 17.5327 31.7626 17.5327H34.7336C35.1861 17.5327 35.6122 17.7092 35.9325 18.0289C36.252 18.3489 36.4284 18.7732 36.4295 19.2242C36.4317 20.1592 35.6248 20.9235 34.6899 20.9235H28.3414V17.5328H28.9903C29.3184 17.5328 29.5844 17.2667 29.5844 16.9387C29.5844 16.6106 29.3184 16.3446 28.9903 16.3446H26.7237V10.9378C26.7237 9.79338 27.5016 8.81002 28.6155 8.54627L39.5427 5.96065C39.8108 5.89729 40 5.65799 40 5.3826V5.03401C40 3.64955 39.4056 2.31862 38.3371 1.43815ZM10.9305 7.21487L1.18852 4.91268C1.20328 3.91205 1.65453 2.97838 2.43133 2.34447C3.22148 1.69987 4.24766 1.44768 5.24625 1.65221L12.5212 3.14221L10.9305 7.21487ZM18.0784 26.3489C17.997 26.0099 17.9525 25.6566 17.9525 25.2929C17.9525 22.8038 19.9775 20.7787 22.4667 20.7787C23.5033 20.7787 24.4587 21.1308 25.2216 21.7205C24.7648 21.6946 24.2928 21.7687 23.8069 21.9428L23.6302 21.5214C23.5034 21.2187 23.1549 21.0761 22.8528 21.203C22.5502 21.3298 22.4077 21.6779 22.5345 21.9805L22.7399 22.4709C22.2803 22.7571 21.8348 23.1041 21.4062 23.4735L21.2349 22.9108C21.1394 22.5969 20.8073 22.4199 20.4937 22.5154C20.1798 22.611 20.0028 22.9428 20.0984 23.2567L20.4342 24.3605C20.3259 24.4634 20.2185 24.5658 20.113 24.6667C19.4163 25.3328 18.6463 26.0686 18.0784 26.3489ZM22.4668 29.807C20.7616 29.8071 19.2744 28.8564 18.5066 27.4575C19.2719 27.1142 20.0594 26.3618 20.9343 25.5254C21.9663 24.5389 22.868 23.7274 23.707 23.2789C23.7116 23.2772 23.7162 23.2758 23.7207 23.2739C23.7555 23.2593 23.7878 23.2416 23.8181 23.2216C24.816 22.7237 25.7279 22.758 26.6692 23.6479C26.8696 24.158 26.9809 24.7125 26.9809 25.2929C26.9809 27.782 24.9559 29.807 22.4668 29.807ZM31.6307 31.3175C30.7997 31.236 30.0328 31.4671 29.3152 31.6834C28.5016 31.9286 27.7327 32.1603 26.8572 31.996C25.507 31.7429 24.7311 31.1448 24.3168 30.6855C24.7408 30.5396 25.1421 30.3453 25.5145 30.1088L25.5211 30.1385C28.5021 29.4761 30.4448 30.3291 31.6307 31.3175ZM27.1533 17.5327V20.9235H26.1256C25.1347 20.0923 23.8584 19.5905 22.4668 19.5905C19.5231 19.5905 17.0935 21.8326 16.7954 24.6988H14.4795V16.963L25.5355 14.1048V16.9386C25.5355 17.2667 25.8015 17.5327 26.1296 17.5327H27.1533ZM14.4795 15.7359V11.1721L25.5355 12.4508V12.8777L14.4795 15.7359ZM25.5355 10.9378V11.2548L14.347 9.9608C14.0375 8.83822 13.2051 7.92229 12.0887 7.51533L13.7023 3.38401L19.0827 4.48596C19.6915 4.61119 20.3088 4.61119 20.9168 4.48604L26.2876 3.38604L27.9035 7.52315C26.4891 8.04908 25.5355 9.39471 25.5355 10.9378ZM29.0607 7.2201L27.4687 3.14424L34.7537 1.65221C35.7527 1.44744 36.7785 1.69994 37.5687 2.34447C38.3457 2.97846 38.7968 3.91213 38.8116 4.91283L29.0607 7.2201Z" fill="white"/>
</svg>
