<svg width="40" height="40" viewBox="0 0 40 40" fill="none" xmlns="http://www.w3.org/2000/svg">
<path d="M21.5502 9.87408C21.9602 9.39505 22.1158 8.74852 21.9686 8.13541C21.8293 7.53105 21.4048 7.03227 20.8304 6.7981C20.1068 6.51875 19.2859 6.71518 18.7672 7.29195L14.4501 11.9339C15.1523 9.83966 14.0238 7.57263 11.9295 6.87043C9.83525 6.16823 7.56823 7.2967 6.86603 9.39097C6.30242 11.072 6.91269 12.9235 8.36551 13.9397H8.25726C7.33855 13.8783 6.44217 14.2405 5.82423 14.9232C5.79623 14.9527 5.77089 14.9847 5.74872 15.0188L0.382799 23.2423C0.0391162 23.7717 -0.0653055 24.4214 0.0950356 25.0318C0.247876 25.6248 0.643395 26.1259 1.18459 26.4124C2.1663 26.9284 3.38028 26.5818 3.94155 25.6252L6.66235 21.1608V25.9341L4.30749 37.5144C4.17406 38.1041 4.31274 38.7225 4.68509 39.1987C5.01902 39.62 5.52688 39.8658 6.0644 39.8664C7.18112 39.8469 8.13175 39.0482 8.34351 37.9516L10.1408 28.668H12.3339L14.3737 38.3549C14.4871 38.9128 14.8239 39.3999 15.3058 39.703C15.6159 39.8974 15.9746 40.0002 16.3406 39.9999C16.5213 39.9994 16.7012 39.9758 16.8758 39.9295C17.9452 39.6364 18.5953 38.5545 18.3522 37.4727L15.9875 25.9334V16.3201L21.5502 9.87408ZM7.99191 10.6674C7.99341 9.19521 9.18647 8.00207 10.6587 8.00032C12.1315 8.00032 13.3255 9.19429 13.3255 10.6671C13.3255 12.1399 12.1315 13.3339 10.6587 13.3339C9.18597 13.3339 7.99208 12.1401 7.99191 10.6674ZM14.6677 26.1349L17.047 37.7452C17.1376 38.1415 16.9002 38.539 16.5082 38.6472C16.3383 38.692 16.1574 38.664 16.0089 38.57C15.8362 38.4604 15.7168 38.284 15.6791 38.083L13.5273 27.8639C13.4624 27.5553 13.1902 27.3344 12.875 27.3345H9.59099C9.27164 27.3346 8.99713 27.561 8.93629 27.8745L7.03387 37.7008C6.92486 38.1531 6.54168 38.4869 6.07874 38.5329C5.94098 38.5352 5.81006 38.4728 5.72522 38.3643C5.60413 38.197 5.56313 37.9848 5.61322 37.7845L7.9825 26.1339C7.99133 26.0901 7.99583 26.0457 7.99583 26.0011V18.7856C7.99591 18.4174 7.69748 18.1188 7.3293 18.1187C7.09662 18.1186 6.88078 18.2399 6.75977 18.4386L2.80292 24.931C2.60266 25.2821 2.16188 25.4138 1.80187 25.2302C1.59269 25.1193 1.44102 24.9241 1.38518 24.694C1.31976 24.4476 1.36126 24.1849 1.49944 23.9707L6.83011 15.801C7.19504 15.4084 7.72465 15.2124 8.25726 15.273H12.875C13.0602 15.2729 13.237 15.1959 13.3633 15.0604L19.7435 8.20008C19.883 8.02999 20.1124 7.96265 20.3217 8.03049C20.499 8.10266 20.6297 8.25708 20.6716 8.44393C20.7199 8.64043 20.6714 8.84819 20.5411 9.00287L14.8162 15.6364C14.7117 15.7574 14.6541 15.9119 14.6541 16.072V26.0012C14.654 26.0461 14.6586 26.0909 14.6677 26.1349Z" fill="white"/>
<path d="M39.5207 9.87403C39.9307 9.395 40.0862 8.74847 39.939 8.13536C39.7998 7.531 39.3753 7.03222 38.801 6.79805C38.0774 6.52003 37.2573 6.71638 36.738 7.2919L32.4203 11.9345C33.1228 9.84027 31.9947 7.57317 29.9005 6.87063C27.8063 6.1681 25.5392 7.29624 24.8366 9.39042C24.2727 11.0715 24.883 12.9233 26.336 13.9396H26.2277C25.3091 13.8782 24.4129 14.2406 23.7949 14.9231C23.7669 14.9526 23.7416 14.9847 23.7194 15.0188L18.3536 23.2422C18.0101 23.7714 17.9055 24.421 18.0655 25.0313C18.2182 25.6245 18.6137 26.126 19.155 26.4126C20.1369 26.9281 21.3506 26.5814 21.912 25.625L24.6329 21.1607V25.2708L22.2783 37.5139C22.1446 38.1036 22.2831 38.7222 22.6555 39.1986C22.9894 39.6199 23.4973 39.8657 24.0349 39.8663C25.1514 39.8464 26.1018 39.0479 26.314 37.9515L28.1116 28.6679H30.3047L32.3443 38.3549C32.4578 38.9126 32.7945 39.3996 33.2763 39.7026C33.5864 39.8971 33.9451 40.0001 34.3112 39.9998C34.4919 39.9994 34.6717 39.9757 34.8464 39.9295C35.9136 39.6377 36.564 38.5597 36.3243 37.4795L33.9582 25.2703V16.32L39.5207 9.87403ZM25.9624 10.6674C25.9639 9.19516 27.157 8.00202 28.6292 8.00027C30.1021 8.00027 31.296 9.19424 31.296 10.6671C31.296 12.1399 30.1021 13.3339 28.6292 13.3339C27.1565 13.3339 25.9626 12.1401 25.9624 10.6674ZM32.6368 25.4614L35.0175 37.7451C35.108 38.1414 34.8708 38.5388 34.479 38.6472C34.309 38.692 34.1279 38.6641 33.9793 38.57C33.8067 38.4604 33.6872 38.284 33.6496 38.083L31.4981 27.8639C31.4332 27.5554 31.161 27.3344 30.8458 27.3345H27.5618C27.2424 27.3346 26.9679 27.561 26.9072 27.8746L25.0044 37.7009C24.8971 38.1542 24.513 38.4888 24.0493 38.5329C23.9115 38.5352 23.7806 38.4728 23.6958 38.3643C23.5739 38.1947 23.5335 37.98 23.5854 37.7777L25.9544 25.4604C25.9624 25.4189 25.9664 25.3767 25.9664 25.3344V18.7856C25.9665 18.4174 25.6681 18.1188 25.2999 18.1188C25.0672 18.1187 24.8514 18.2399 24.7304 18.4386L20.7735 24.9311C20.5729 25.2815 20.1327 25.4132 19.7725 25.2306C19.5634 25.1194 19.4118 24.9242 19.3558 24.6941C19.2905 24.4476 19.3321 24.185 19.4704 23.9707L24.8011 15.8011C25.1658 15.4085 25.6954 15.2124 26.2279 15.273H30.8459C31.0311 15.273 31.2079 15.1959 31.3342 15.0604L37.7147 8.20011C37.854 8.03019 38.0831 7.96293 38.2922 8.03052C38.4695 8.10269 38.6002 8.25712 38.6421 8.44396C38.6905 8.64047 38.642 8.84814 38.5116 9.0029L32.7871 15.6364C32.6826 15.7575 32.625 15.912 32.625 16.072V25.3344C32.6249 25.377 32.629 25.4195 32.6368 25.4614Z" fill="white"/>
<path d="M10.007 0H4.67336C4.30518 0 4.00666 0.298514 4.00666 0.666699L4.00633 5.60319C3.58481 5.42401 3.13129 5.33234 2.67326 5.33359C1.17778 5.33359 0.00646973 6.21221 0.00646973 7.33368C0.00646973 8.45516 1.17778 9.33378 2.67326 9.33378C4.16875 9.33378 5.34006 8.45516 5.34006 7.33368L5.33973 7.33118V4.00019H10.007C10.3751 4.00019 10.6736 3.70168 10.6736 3.33349V0.666699C10.6736 0.298514 10.3751 0 10.007 0ZM2.67326 8.00038C1.85939 8.00038 1.33987 7.60553 1.33987 7.33368C1.33987 7.06184 1.85939 6.66699 2.67326 6.66699C3.48572 6.66699 4.00458 7.06042 4.00633 7.33219V7.33368H4.00666C4.00666 7.60553 3.48705 8.00038 2.67326 8.00038ZM9.34025 2.66679H5.34006V1.3334H9.34025V2.66679Z" fill="white"/>
</svg>
