<svg width="32" height="40" viewBox="0 0 32 40" fill="none" xmlns="http://www.w3.org/2000/svg">
<path d="M31.0183 15.6265C30.9719 15.3387 30.7006 15.1434 30.4129 15.1892L26.3206 15.8493C26.0327 15.8958 25.8369 16.1667 25.8833 16.4547C25.9252 16.7142 26.1494 16.8988 26.4041 16.8988C26.432 16.8988 27.2654 16.7668 27.2654 16.7668L24.9484 21.2566H24.1116C23.4769 21.2566 22.9605 20.7398 22.9605 20.1015L22.9598 20.0018C22.9965 20.0036 23.033 20.006 23.0699 20.006C23.828 20.006 24.5413 19.6366 24.9778 19.0175C25.6904 18.0069 25.4843 16.6201 24.5329 15.8561L24.9696 15.5112C25.1985 15.3304 25.2375 14.9983 25.0567 14.7694C24.8759 14.5406 24.544 14.5015 24.3149 14.6823L23.6366 15.2179L17.2633 10.7242C18.7472 10.1574 19.9425 8.96868 20.4983 7.45023C21.0073 6.05992 20.9446 4.55485 20.3215 3.21215C19.6985 1.86955 18.5897 0.849764 17.1993 0.340797C15.8094 -0.168258 14.3044 -0.105242 12.9619 0.517875C11.6194 1.14099 10.5996 2.24984 10.0907 3.64015C9.41135 5.49586 9.76956 7.53587 10.9897 9.03698C10.0296 9.39439 9.18358 10.0344 8.57886 10.8922L5.83529 14.7832C4.78136 16.278 4.73313 18.1841 5.54899 19.6935C4.32854 19.6621 3.18704 20.4457 2.82074 21.6701C2.73713 21.9495 2.8959 22.2437 3.17525 22.3273L7.5736 23.6435L8.28948 29.3175C6.37805 29.4124 4.59451 30.2018 3.23122 31.5651C1.77632 33.021 0.974976 34.9561 0.974976 37.014C0.974976 38.6606 2.31459 40.0002 3.96119 40.0002H21.6523C21.9438 40.0002 22.1803 39.7637 22.1803 39.4721V36.2967C22.1803 34.6966 21.6339 33.1555 20.6359 31.9167L25.6 22.3129H27.2332C27.8225 22.3129 28.3767 22.0833 28.7939 21.6662C29.2108 21.2491 29.4405 20.6946 29.4405 20.1047C29.4405 19.0974 28.7621 18.2462 27.8384 17.9824L28.5759 16.5556L30.5808 16.2321C30.8689 16.1855 31.0647 15.9145 31.0183 15.6265ZM11.0826 4.0032C11.4946 2.8778 12.3199 1.98026 13.4066 1.47587C14.4933 0.97166 15.7112 0.920613 16.8364 1.3325C19.1592 2.18295 20.3571 4.76449 19.5066 7.08728C18.9689 8.55644 17.6908 9.64294 16.1585 9.94517L15.7439 9.65279C14.8719 9.03795 13.8488 8.71284 12.7852 8.71284C12.5738 8.71284 12.3641 8.72604 12.1569 8.75156C10.8956 7.51721 10.4729 5.66863 11.0826 4.0032ZM6.69859 15.3916L9.44215 11.5007C10.2068 10.4164 11.4565 9.76897 12.7852 9.76897C13.6297 9.76897 14.4424 10.0273 15.1354 10.5158L23.8069 16.6301C24.3822 17.0357 24.5202 17.8337 24.1146 18.4088C23.8757 18.7477 23.4852 18.9498 23.0699 18.9498C22.8063 18.9498 22.5524 18.8691 22.3358 18.7165L15.1074 13.6198C14.8689 13.4517 14.5396 13.5086 14.3716 13.747C14.2035 13.9854 14.2604 14.3148 14.4987 14.4828L14.6439 14.5852L12.5894 18.7899L11.8364 18.2589C11.598 18.0908 11.2686 18.1478 11.1005 18.3861C10.9324 18.6245 10.9894 18.954 11.2277 19.122L14.033 21.0999C16.2935 22.6938 16.8359 25.8296 15.242 28.0901L14.253 29.4928C13.9688 29.8957 13.5044 30.1364 13.0105 30.1364C12.6969 30.1364 12.395 30.0403 12.1375 29.8589C11.4534 29.3765 11.2892 28.4274 11.7715 27.7434L12.3015 26.9916C13.1419 25.7999 12.8559 24.1468 11.6642 23.3065L7.56805 20.4183C5.94258 19.272 5.55251 17.0172 6.69859 15.3916ZM11.4875 33.7959C11.4875 34.3782 11.0138 34.852 10.4315 34.852C9.84921 34.852 9.37544 34.3782 9.37544 33.7959C9.37544 33.2136 9.84921 32.7398 10.4315 32.7398C10.4478 32.7398 10.4637 32.7416 10.4798 32.7423L9.98694 33.5109C9.82949 33.7563 9.90087 34.083 10.1465 34.2404C10.2347 34.297 10.3334 34.324 10.431 34.324C10.605 34.324 10.7752 34.2381 10.876 34.0808L11.3691 33.3119C11.4443 33.4571 11.4875 33.6214 11.4875 33.7959ZM5.96907 20.8203L6.61665 21.014C6.72587 21.1073 9.5813 23.13 9.5813 23.13C9.55499 23.129 4.06372 21.4907 4.06372 21.4907C4.47499 20.8948 5.23884 20.6021 5.96907 20.8203ZM9.19995 24.1299C9.32977 24.1687 9.46222 24.188 9.59397 24.188C9.81779 24.188 10.0395 24.1324 10.2419 24.0231C10.3521 23.9636 10.4512 23.8897 10.5393 23.8054L11.0557 24.1695C11.7715 24.6742 11.9432 25.6673 11.4386 26.383L10.9085 27.1347C10.4464 27.7902 10.3345 28.5889 10.5336 29.3075H9.35309L8.68024 23.9744L9.19995 24.1299ZM21.1244 38.9439H3.96136C2.89713 38.9439 2.03128 38.078 2.03128 37.0138C2.03128 35.2379 2.72278 33.568 3.97826 32.3116C5.23444 31.0555 6.90436 30.3636 8.68051 30.3636H11.1205C11.2415 30.4947 11.3775 30.6152 11.529 30.722C11.5857 30.762 11.6439 30.7994 11.7032 30.8344L11.0907 31.7896C10.8832 31.7212 10.6616 31.6837 10.4315 31.6837C9.26684 31.6837 8.31931 32.6312 8.31931 33.7959C8.31931 34.9605 9.26684 35.9081 10.4315 35.9081C11.5961 35.9081 12.5437 34.9605 12.5437 33.7959C12.5437 33.242 12.3291 32.7376 11.9792 32.3605L12.7384 31.1764C12.8285 31.1859 12.919 31.1925 13.0106 31.1925C13.7337 31.1925 14.4195 30.8874 14.9034 30.3636H15.1916C16.8761 30.3636 18.487 31.0839 19.6116 32.3398C20.5872 33.4284 21.1244 34.8336 21.1244 36.2964V38.9439ZM19.8671 31.1031C18.7069 30.0592 17.2245 29.4316 15.6634 29.3254L16.1052 28.6988C17.0399 27.3732 17.4024 25.763 17.126 24.1647C16.8497 22.5665 15.9674 21.1716 14.6417 20.2369L13.4637 19.4063L15.5182 15.2015C15.5182 15.2015 21.8425 19.6561 21.902 19.6906L21.9044 20.1044C21.9044 21.3221 22.8946 22.3126 24.1117 22.3126H24.4035L19.8671 31.1031ZM28.3846 20.1045C28.3846 20.4124 28.2648 20.7017 28.0473 20.9192C27.8297 21.1368 27.5406 21.2566 27.2334 21.2566H26.1461L27.334 18.9585C27.9217 19.0097 28.3846 19.5038 28.3846 20.1045Z" fill="white"/>
</svg>
