<svg width="44" height="21" viewBox="0 0 44 21" fill="none" xmlns="http://www.w3.org/2000/svg">
<path d="M9.57208 0.683773C9.70819 0.27543 10.0903 0 10.5208 0H42.0126C42.6951 0 43.1771 0.668697 42.9613 1.31623L42.2279 3.51623C42.0918 3.92457 41.7097 4.2 41.2792 4.2H9.78743C9.10487 4.2 8.6229 3.5313 8.83874 2.88377L9.57208 0.683773Z" fill="white"/>
<path d="M1.17208 9.08367C1.30819 8.67533 1.69033 8.3999 2.12076 8.3999H33.6126C34.2951 8.3999 34.7771 9.0686 34.5613 9.71613L33.8279 11.9161C33.6918 12.3245 33.3097 12.5999 32.8792 12.5999H1.38743C0.704868 12.5999 0.222899 11.9312 0.438743 11.2837L1.17208 9.08367Z" fill="white"/>
<path d="M9.57208 17.4836C9.70819 17.0752 10.0903 16.7998 10.5208 16.7998H42.0126C42.6951 16.7998 43.1771 17.4685 42.9613 18.116L42.2279 20.316C42.0918 20.7244 41.7097 20.9998 41.2792 20.9998H9.78743C9.10487 20.9998 8.6229 20.3311 8.83874 19.6836L9.57208 17.4836Z" fill="white"/>
</svg>
