<svg width="176" height="91" viewBox="0 0 176 91" fill="none" xmlns="http://www.w3.org/2000/svg">
<g clip-path="url(#clip0_374:372)">
<path d="M110.665 76.5629L110.968 75.525C111.579 75.7263 112.217 75.8344 112.86 75.8458C113.617 75.8458 113.769 75.7137 113.845 75.2608C113.92 74.8079 113.844 74.6191 112.804 74.4304C111.384 74.1473 111.27 73.5434 111.441 72.5432C111.611 71.543 112.198 70.958 113.845 70.958C114.486 70.9603 115.123 71.0556 115.737 71.2411L115.529 72.3168C114.96 72.1665 114.376 72.0841 113.788 72.0714C113.05 72.0714 112.917 72.0715 112.822 72.6376C112.728 73.2038 112.822 73.2604 113.807 73.4302C115.321 73.7133 115.434 74.2983 115.264 75.1853C115.018 76.5252 114.658 77.0725 112.766 77.0725C112.073 77.0595 111.387 76.9254 110.74 76.6762" fill="white"/>
<path d="M118.425 76.5629L118.727 75.525C119.339 75.7263 119.977 75.8344 120.62 75.8458C121.377 75.8458 121.529 75.7137 121.604 75.2608C121.68 74.8079 121.604 74.6191 120.563 74.4304C119.144 74.1473 119.03 73.5434 119.201 72.5432C119.371 71.543 119.958 70.958 121.604 70.958C122.246 70.9603 122.883 71.0556 123.497 71.2411L123.289 72.3168C122.72 72.1665 122.136 72.0841 121.547 72.0714C120.809 72.0714 120.677 72.0715 120.582 72.6376C120.488 73.2038 120.582 73.2604 121.566 73.4302C123.081 73.7133 123.194 74.2983 123.024 75.1853C122.778 76.5252 122.399 77.0725 120.525 77.0725C119.832 77.0595 119.147 76.9254 118.5 76.6762" fill="white"/>
<path d="M131.011 75.4873C131.002 75.3427 131.002 75.1977 131.011 75.0532L131.408 72.7697C131.673 71.3166 132.43 70.9769 133.982 70.9769C134.565 70.9673 135.145 71.0436 135.705 71.2033L135.478 72.279C134.947 72.1767 134.409 72.1199 133.869 72.1092C133.169 72.1092 132.866 72.279 132.752 72.9018L132.487 75.0155C132.487 75.0155 132.487 75.2042 132.487 75.2797C132.487 75.3551 132.714 75.8081 133.358 75.8081C133.897 75.8123 134.435 75.7681 134.967 75.676V76.7517C134.346 76.896 133.711 76.9657 133.074 76.9593C131.635 76.9593 131.03 76.3554 131.03 75.4495" fill="white"/>
<path d="M139.528 71.0527H140.891L140.077 75.6575H142.632L142.424 76.8464H138.506L139.528 71.0527Z" fill="white"/>
<path d="M145.944 75.4875C145.933 75.343 145.933 75.1979 145.944 75.0534L146.626 71.147H147.988L147.288 75.1101V75.2988C147.288 75.6951 147.553 75.8838 148.234 75.8838C148.916 75.8838 149.37 75.6951 149.465 75.1101L150.165 71.147H151.509L150.789 75.2422C150.6 76.3556 150.108 77.1293 148.045 77.1293C146.55 77.1293 145.887 76.5254 145.887 75.563" fill="white"/>
<path d="M154.518 76.8464L155.54 71.0527H158.341C159.363 71.0527 159.799 71.3736 159.799 71.9775C159.806 72.0843 159.806 72.1915 159.799 72.2983L159.666 73.0531C159.666 73.4872 159.344 73.7325 158.739 73.8835C158.873 73.8888 159.004 73.9249 159.122 73.989C159.239 74.0531 159.341 74.1435 159.418 74.2531C159.495 74.3627 159.545 74.4886 159.565 74.6209C159.585 74.7532 159.575 74.8884 159.534 75.0158V75.582C159.382 76.4689 158.947 76.8464 157.641 76.8464H154.518ZM158.19 74.9592C158.19 74.5629 158.076 74.4308 157.622 74.4308H156.297L156.051 75.8462H157.471C157.944 75.8462 158.076 75.6386 158.114 75.3933L158.19 74.9592ZM158.417 72.4304C158.417 72.1662 158.417 72.0529 158.02 72.0529H156.732L156.486 73.4306H157.717C158.095 73.4306 158.266 73.3174 158.322 72.9965L158.417 72.4304Z" fill="white"/>
<path d="M162.637 76.5629L162.94 75.525C163.552 75.7246 164.19 75.8327 164.833 75.8458C165.59 75.8458 165.76 75.7137 165.836 75.2608C165.912 74.8079 165.836 74.6191 164.776 74.4304C163.376 74.1473 163.243 73.5434 163.413 72.5432C163.584 71.543 164.171 70.958 165.817 70.958C166.458 70.9634 167.095 71.0587 167.71 71.2411L167.502 72.3168C166.933 72.1665 166.348 72.0841 165.76 72.0714C165.022 72.0714 164.871 72.0715 164.795 72.6376C164.719 73.2038 164.795 73.2604 165.779 73.4302C167.275 73.7133 167.388 74.2983 167.218 75.1853C166.972 76.5252 166.612 77.0725 164.719 77.0725C164.027 77.0558 163.342 76.9218 162.694 76.6762" fill="white"/>
<path d="M151.792 26.2696C151.541 27.4257 150.905 28.4631 149.987 29.2133C149.07 29.9636 147.925 30.3827 146.739 30.4026C146.208 30.4363 145.677 30.3478 145.186 30.1437C144.695 29.9397 144.258 29.6257 143.908 29.226C143.559 28.8263 143.306 28.3518 143.17 27.8391C143.034 27.3264 143.018 26.7894 143.124 26.2696C143.38 25.112 144.019 24.0742 144.94 23.3242C145.86 22.5741 147.008 22.1557 148.196 22.1367C148.726 22.106 149.255 22.1968 149.743 22.4022C150.232 22.6075 150.667 22.9219 151.014 23.3212C151.361 23.7205 151.612 24.1939 151.747 24.7051C151.882 25.2163 151.898 25.7515 151.792 26.2696Z" fill="white"/>
<path d="M5.67681 28.1002C6.18783 25.8167 11.8848 3.56678 28.7296 3.17047C43.7385 2.90626 47.0129 26.4206 47.0129 26.4206C47.0129 26.4206 58.5393 17.815 66.6589 12.6441C74.2296 7.86956 84.5636 0.886976 90.4309 0C90.4309 0 78.3745 10.455 68.3244 18.9662C63.4224 23.1369 51.877 33.9127 48.4513 37.0832C48.4513 37.0832 51.12 68.1273 29.392 79.0919C29.392 79.0919 35.7514 62.1072 34.4076 49.7462C34.4076 49.7462 21.8213 62.4847 3.29204 91C3.29204 91 0.13127 88.5844 -0.00121777 81.8094C-0.152632 73.185 6.03642 59.2953 32.5907 36.517C32.5907 36.517 30.698 14.5124 20.7236 14.7012C11.6577 14.8521 6.96383 28.7796 6.96383 28.7796L5.67681 28.1002Z" fill="#7AB929"/>
<path d="M174.126 57.125C174.379 57.1083 174.633 57.1457 174.87 57.2347C175.107 57.3236 175.322 57.4621 175.502 57.6407C175.681 57.8194 175.82 58.0342 175.909 58.2707C175.998 58.5073 176.036 58.7601 176.019 59.0122C176.019 59.5127 175.819 59.9927 175.464 60.3466C175.109 60.7006 174.628 60.8994 174.126 60.8994C173.624 60.8994 173.143 60.7006 172.788 60.3466C172.433 59.9927 172.233 59.5127 172.233 59.0122C172.214 58.7593 172.249 58.5051 172.337 58.2671C172.425 58.0292 172.564 57.813 172.744 57.6337C172.923 57.4543 173.14 57.316 173.379 57.2281C173.618 57.1403 173.872 57.1052 174.126 57.125ZM174.126 60.3898C174.397 60.3974 174.664 60.3241 174.893 60.1794C175.122 60.0348 175.303 59.8253 175.412 59.5777C175.521 59.3302 175.553 59.0559 175.505 58.7899C175.457 58.5239 175.33 58.2783 175.141 58.0844C174.952 57.8906 174.709 57.7574 174.444 57.7018C174.179 57.6463 173.903 57.6709 173.652 57.7725C173.4 57.8742 173.185 58.0482 173.034 58.2724C172.882 58.4966 172.801 58.7608 172.801 59.0311C172.784 59.2105 172.807 59.3913 172.867 59.5612C172.927 59.7311 173.023 59.886 173.149 60.0152C173.275 60.1443 173.428 60.2447 173.596 60.3094C173.765 60.3741 173.946 60.4015 174.126 60.3898ZM174.126 59.2953H173.861V59.8426H173.483V58.1441H174.183C174.58 58.1441 174.751 58.2951 174.751 58.6159V58.8046C174.758 58.8907 174.738 58.977 174.694 59.0515C174.65 59.1259 174.584 59.1847 174.505 59.2198L174.959 59.8426H174.524L174.126 59.2953ZM174.126 58.5027H173.823V58.9745H174.126C174.296 58.9745 174.334 58.9745 174.334 58.7857V58.6725C174.334 58.5404 174.334 58.5027 174.126 58.5027Z" fill="white"/>
<path d="M105.403 35.083H97.0943L91.3595 42.5751L88.2555 35.083H80.4766L86.06 47.6139L75.196 60.8431H83.7888L90.0725 52.8791L93.2522 60.8431H101.391L95.3152 47.595L105.403 35.083Z" fill="white"/>
<path d="M144.846 60.8431H137.881L142.613 35.083H149.559L144.846 60.8431Z" fill="white"/>
<path d="M131.863 28.874H138.695L139.869 22.1934H131.314C128.775 22.2371 126.333 23.1709 124.416 24.8307C122.498 26.4905 121.228 28.7705 120.828 31.2707C120.223 34.6299 115.87 60.8429 115.87 60.8429H122.816C122.816 60.8429 124.708 49.9161 126.014 41.7635H135.932L137.105 35.0828H127.131C127.32 34.0071 127.434 33.3089 127.472 33.0824C127.575 31.9721 128.075 30.9358 128.881 30.163C129.688 29.3903 130.746 28.9327 131.863 28.874Z" fill="white"/>
<path d="M161.691 41.7635H172.404L173.483 35.0828H162.903C164.114 28.4777 165.25 22.1934 165.25 22.1934H158.303C158.303 22.1934 153.799 46.8777 153.307 50.2369C152.114 56.993 155.464 60.8429 163.054 60.8429H169.262L170.341 54.1623H163.111C160.461 54.1623 159.666 52.2751 160.12 50.0482C160.291 49.2744 160.915 45.8964 161.691 41.7635Z" fill="white"/>
<path d="M112.311 47.5191C112.121 48.6319 111.538 49.6398 110.666 50.36C109.794 51.0802 108.693 51.465 107.561 51.4445C107.01 51.4657 106.461 51.3667 105.953 51.1544C105.444 50.9421 104.988 50.6217 104.617 50.2155C104.246 49.8093 103.968 49.3272 103.803 48.8028C103.638 48.2783 103.59 47.7243 103.662 47.1794C103.891 46.0491 104.507 45.0333 105.405 44.3067C106.303 43.5801 107.426 43.1879 108.583 43.1975C109.13 43.1917 109.671 43.3042 110.17 43.5271C110.669 43.75 111.114 44.0781 111.474 44.4888C111.834 44.8995 112.1 45.3831 112.254 45.9062C112.409 46.4293 112.448 46.9796 112.368 47.5191" fill="#7AB929"/>
<path d="M74.8931 73.5627H77.3914L77.2021 74.6761H74.6849L74.3063 76.8464H72.9436L73.9846 71.0527H78.0349L77.8456 72.1473H75.1391L74.8931 73.5627Z" fill="white"/>
<path d="M81.6501 71.0527H83.0128L81.9719 76.8464H80.6091L81.6501 71.0527Z" fill="white"/>
<path d="M88.5961 76.8464H87.2333L88.0472 72.2228H86.2681L86.4763 71.0527H91.3783L91.1701 72.2228H89.4099L88.5961 76.8464Z" fill="white"/>
<path d="M95.8262 72.7323L95.088 76.8464H93.801L94.8231 71.0527H96.4697L97.9838 75.2045L98.722 71.0527H100.009L98.9869 76.8464H97.3214L95.8262 72.7323Z" fill="white"/>
<path d="M104.04 71.0527H108.072L107.864 72.1473H105.195L104.987 73.3362H107.466L107.258 74.4497H104.798L104.57 75.7518H107.239L107.05 76.8464H103L104.04 71.0527Z" fill="white"/>
</g>
<defs>
<clipPath id="clip0_374:372">
<rect width="176" height="91" fill="white"/>
</clipPath>
</defs>
</svg>
