<svg width="24" height="24" viewBox="0 0 24 24" fill="none" xmlns="http://www.w3.org/2000/svg">
<path d="M11.9531 0C5.34661 0 0 5.34605 0 11.9531C0 18.5107 5.29805 24 11.9531 24C18.5366 24 24 18.5761 24 11.9531C24 5.29078 18.5036 0 11.9531 0ZM11.9531 22.6031C6.13758 22.6031 1.39687 17.8204 1.39687 11.9531C1.39687 6.13758 6.13758 1.39687 11.9531 1.39687C17.8204 1.39687 22.6031 6.13758 22.6031 11.9531C22.6031 17.8204 17.8204 22.6031 11.9531 22.6031Z" fill="#7AB929"/>
<path d="M13.0412 11.9531L15.3565 9.63785C15.6311 9.36326 15.6311 8.91804 15.3565 8.64345C15.082 8.36885 14.6367 8.36885 14.3622 8.64345L11.5497 11.4559C11.2751 11.7305 11.2751 12.1757 11.5497 12.4503L14.3622 15.2628C14.6367 15.5373 15.0819 15.5374 15.3565 15.2628C15.6311 14.9882 15.6311 14.543 15.3565 14.2684L13.0412 11.9531Z" fill="#7AB929"/>
<path d="M11.9531 2.8125C6.91838 2.8125 2.8125 6.90923 2.8125 11.9531C2.8125 17.0134 6.93108 21.1875 11.9531 21.1875C16.9919 21.1875 21.1875 17.0087 21.1875 11.9531C21.1875 6.93398 17.0165 2.8125 11.9531 2.8125ZM17.9338 16.9394L17.5159 16.5215C17.2413 16.2469 16.7961 16.2469 16.5215 16.5215C16.2469 16.7961 16.2469 17.2413 16.5215 17.5159L16.9394 17.9337C15.7463 18.9362 14.2626 19.5968 12.6562 19.7476V19.0781C12.6562 18.6898 12.3414 18.375 11.9531 18.375C11.5648 18.375 11.25 18.6898 11.25 19.0781V19.7486C9.64983 19.6019 8.18883 18.9603 7.01822 17.9761L7.47844 17.5159C7.75303 17.2413 7.75303 16.7962 7.47844 16.5216C7.20389 16.247 6.75867 16.247 6.48408 16.5216L6.02752 16.9781C5.03925 15.7861 4.39495 14.293 4.2503 12.6562H4.92188C5.31019 12.6562 5.625 12.3414 5.625 11.9531C5.625 11.5648 5.31019 11.25 4.92188 11.25H4.25105C4.39645 9.64453 5.03419 8.17913 6.01219 7.00655L6.48413 7.47848C6.75867 7.75303 7.20389 7.75308 7.47848 7.47848C7.75308 7.20389 7.75308 6.75872 7.47848 6.48413L7.00655 6.01219C8.17913 5.03419 9.64453 4.39645 11.25 4.25105V4.92188C11.25 5.31019 11.5648 5.625 11.9531 5.625C12.3414 5.625 12.6562 5.31019 12.6562 4.92188V4.2503C14.293 4.39495 15.7861 5.03925 16.9781 6.02756L16.5216 6.48408C16.0772 6.92841 16.398 7.68441 17.0187 7.68441C17.1987 7.68441 17.3786 7.61578 17.5159 7.47848L17.9761 7.01827C18.9603 8.18888 19.6019 9.64992 19.7485 11.25H19.0781C18.6898 11.25 18.375 11.5648 18.375 11.9531C18.375 12.3414 18.6898 12.6562 19.0781 12.6562H19.7477C19.5968 14.2626 18.9362 15.7464 17.9338 16.9394Z" fill="#7AB929"/>
</svg>
