<svg width="24" height="24" viewBox="0 0 24 24" fill="none" xmlns="http://www.w3.org/2000/svg">
<path d="M21.8906 2.15625H7.73438C6.57127 2.15625 5.625 3.10252 5.625 4.26562V4.96875H4.92188C3.75877 4.96875 2.8125 5.91502 2.8125 7.07812V7.78125H2.10938C0.943453 7.78125 0 8.73117 0 9.89062V19.7344C0 20.8976 0.948188 21.8438 2.10938 21.8438H16.1719C17.3306 21.8438 18.2812 20.9002 18.2812 19.7344V19.0312H19.0781C20.2412 19.0312 21.1875 18.085 21.1875 16.9219V16.2188H21.8906C23.0537 16.2188 24 15.2725 24 14.1094V4.26562C24 3.10252 23.0537 2.15625 21.8906 2.15625ZM15.8133 9.1875L9.64013 15.4186C9.36483 15.6966 8.91647 15.6966 8.64112 15.4186L2.46797 9.1875H15.8133ZM1.40625 19.4431V10.1139L6.04908 14.8004L1.40625 19.4431ZM2.40061 20.4375L7.0388 15.7994L7.64213 16.4084C8.46825 17.2422 9.81314 17.2421 10.6392 16.4084L11.2425 15.7994L15.8806 20.4375H2.40061ZM16.875 19.4432L12.2322 14.8004L16.875 10.1139V19.4432ZM19.7812 16.9219C19.7812 17.3096 19.4658 17.625 19.0781 17.625H18.2812V9.89062C18.2812 8.7315 17.3381 7.78125 16.1719 7.78125H4.21875V7.07812C4.21875 6.69042 4.53417 6.375 4.92188 6.375H19.0781C19.4658 6.375 19.7812 6.69042 19.7812 7.07812V16.9219ZM22.5938 14.1094C22.5938 14.4971 22.2783 14.8125 21.8906 14.8125H21.1875V7.07812C21.1875 5.91502 20.2412 4.96875 19.0781 4.96875H7.03125V4.26562C7.03125 3.87792 7.34667 3.5625 7.73438 3.5625H21.8906C22.2783 3.5625 22.5938 3.87792 22.5938 4.26562V14.1094Z" fill="#7AB929"/>
</svg>
