<svg width="24" height="24" viewBox="0 0 24 24" fill="none" xmlns="http://www.w3.org/2000/svg">
<g clip-path="url(#clip0_127_2650)">
<path d="M23.3825 17.7016L20.3989 14.718C19.5763 13.8955 18.2379 13.8955 17.4154 14.718L16.0592 16.0742C15.4361 16.6973 14.4221 16.6971 13.7991 16.0744L7.92099 10.1912C7.29638 9.56663 7.29629 8.55568 7.92099 7.93097C8.13943 7.71254 8.76667 7.0853 9.27714 6.57483C10.0961 5.75593 10.1075 4.42163 9.27634 3.59053L6.29358 0.617157C5.47102 -0.205359 4.13259 -0.205359 3.31223 0.615001C2.69836 1.22353 2.50036 1.41984 2.22511 1.6927C-0.74115 4.65891 -0.74115 9.4853 2.22497 12.4514L11.5387 21.77C14.5119 24.7432 19.3241 24.7435 22.2975 21.77L23.3825 20.6851C24.205 19.8625 24.205 18.5241 23.3825 17.7016ZM4.30458 1.61166C4.57875 1.33749 5.02482 1.33744 5.29988 1.61241L8.28263 4.58578C8.55746 4.86061 8.55746 5.30541 8.28263 5.58029L7.78534 6.07754L3.80986 2.10206L4.30458 1.61166ZM12.5334 20.7756L3.21961 11.457C0.924697 9.16205 0.798557 5.55854 2.83167 3.11292L6.79562 7.07686C5.75405 8.2576 5.79746 10.0568 6.92626 11.1856L12.8042 17.0685C12.8043 17.0685 12.8043 17.0686 12.8044 17.0687C13.932 18.1963 15.7311 18.2425 16.9133 17.1995L20.8773 21.1636C18.4395 23.1932 14.8441 23.0863 12.5334 20.7756ZM22.388 19.6906L21.8907 20.1879L17.9127 16.2098L18.4099 15.7125C18.6841 15.4383 19.1302 15.4383 19.4044 15.7125L22.388 18.6961C22.6622 18.9703 22.6622 19.4164 22.388 19.6906Z" fill="#7AB929"/>
</g>
<defs>
<clipPath id="clip0_127_2650">
<rect width="24" height="24" fill="white"/>
</clipPath>
</defs>
</svg>
