<svg width="32" height="32" viewBox="0 0 32 32" fill="none" xmlns="http://www.w3.org/2000/svg">
<path d="M30.4 3.7334H1.6C0.716375 3.7334 0 4.44971 0 5.3334V26.6667C0 27.5503 0.716313 28.2667 1.6 28.2667H30.4C31.2836 28.2667 32 27.5504 32 26.6667V5.3334C32 4.44977 31.2837 3.7334 30.4 3.7334ZM30.9333 26.6668C30.9333 26.9613 30.6946 27.2001 30.4 27.2001H1.6C1.30544 27.2001 1.06669 26.9613 1.06669 26.6668V5.3334C1.06669 5.03884 1.30544 4.80009 1.6 4.80009H30.4C30.6946 4.80009 30.9333 5.03884 30.9333 5.3334V26.6668Z" fill="white"/>
<path d="M29.3797 5.86891C29.2388 5.8566 29.0987 5.90079 28.9904 5.99179L16.6864 16.3277C16.2896 16.6613 15.7104 16.6613 15.3136 16.3277L3.00962 5.99172C2.86368 5.86922 2.66343 5.83385 2.48437 5.89897C2.30531 5.9641 2.17456 6.11985 2.14143 6.30754C2.10831 6.49522 2.17781 6.68629 2.32375 6.80879L14.6277 17.1442C15.4207 17.8119 16.5792 17.8119 17.3723 17.1442L29.6763 6.80885C29.7846 6.71791 29.8524 6.58766 29.8647 6.44672C29.877 6.30579 29.8328 6.16572 29.7418 6.05741C29.6509 5.94897 29.5207 5.88122 29.3797 5.86891Z" fill="white"/>
<path d="M10.2577 17.0707C10.0689 17.0286 9.87218 17.092 9.74343 17.2364L2.27675 25.2364C2.14162 25.3747 2.092 25.5755 2.14712 25.7609C2.20225 25.9463 2.35343 26.0873 2.54218 26.1294C2.731 26.1716 2.92775 26.1082 3.0565 25.9638L10.5232 17.9638C10.6583 17.8254 10.7079 17.6247 10.6528 17.4393C10.5977 17.2539 10.4466 17.1129 10.2577 17.0707Z" fill="white"/>
<path d="M22.2564 17.2364C22.1278 17.092 21.9309 17.0286 21.7421 17.0707C21.5533 17.1129 21.4022 17.2539 21.3471 17.4393C21.2919 17.6247 21.3416 17.8254 21.4767 17.9638L28.9434 25.9638C29.1459 26.1712 29.4769 26.1789 29.6888 25.9812C29.9008 25.7834 29.916 25.4527 29.7231 25.2363L22.2564 17.2364Z" fill="white"/>
</svg>
