<svg width="26" height="32" viewBox="0 0 26 32" fill="none" xmlns="http://www.w3.org/2000/svg">
<path d="M22.6074 22.8741L17.5125 20.3269C17.0319 20.0864 16.7333 19.6032 16.7333 19.0656V17.2624C16.8554 17.1131 16.9839 16.9429 17.1167 16.7552C17.7775 15.8219 18.3071 14.7829 18.6922 13.6624C19.4447 13.3173 19.9333 12.5733 19.9333 11.7333V9.6C19.9333 9.0864 19.7413 8.5888 19.3999 8.2V5.3632C19.4298 5.06987 19.5471 3.32373 18.2842 1.8832C17.1887 0.6336 15.4111 0 12.9999 0C10.5887 0 8.81114 0.6336 7.71568 1.88267C6.45274 3.3232 6.57008 5.06987 6.59994 5.3632V8.2C6.25861 8.5888 6.06661 9.0864 6.06661 9.6V11.7333C6.06661 12.3824 6.36154 12.9877 6.86501 13.3915C7.35354 15.3259 8.37594 16.7835 8.73328 17.2512V19.016C8.73328 19.5323 8.45168 20.0059 7.99888 20.2533L3.24101 22.8485C1.69381 23.6928 0.733276 25.3109 0.733276 27.0731V28.8C0.733276 31.3312 8.75728 32 12.9999 32C17.2426 32 25.2666 31.3312 25.2666 28.8V27.1771C25.2666 25.3435 24.2474 23.6944 22.6074 22.8741ZM24.1999 28.8C24.1999 29.5237 20.2469 30.9333 12.9999 30.9333C5.75301 30.9333 1.79994 29.5237 1.79994 28.8V27.0731C1.79994 25.7019 2.54768 24.4416 3.75141 23.7856L8.50928 21.1904C9.30554 20.7557 9.79994 19.9221 9.79994 19.016V16.8725L9.67568 16.7243C9.66288 16.7088 8.35568 15.1275 7.85701 12.9563L7.80848 12.7451L7.62661 12.6277C7.31781 12.4283 7.13328 12.0939 7.13328 11.7333V9.6C7.13328 9.3008 7.26021 9.02187 7.49061 8.81333L7.66661 8.65493V5.33333L7.66181 5.26347C7.66021 5.24907 7.47888 3.77067 8.51781 2.5856C9.40154 1.5776 10.9098 1.06667 12.9999 1.06667C15.0826 1.06667 16.5877 1.57387 17.4725 2.57493C18.5109 3.7488 18.3391 5.25067 18.3381 5.26347L18.3333 8.65493L18.5093 8.81387C18.7397 9.02187 18.8666 9.3008 18.8666 9.6V11.7333C18.8666 12.1989 18.5615 12.6064 18.1082 12.7461L17.8426 12.8277L17.7573 13.0917C17.4005 14.2016 16.8922 15.2267 16.2458 16.1387C16.0874 16.3632 15.9333 16.5621 15.7994 16.7141L15.6666 16.8656V19.0656C15.6666 20.0096 16.1909 20.8581 17.0351 21.2805L22.1301 23.8277C23.4069 24.4661 24.1999 25.7493 24.1999 27.1771V28.8Z" fill="white"/>
</svg>
